<?xml version="1.0"?>
<!--Icons from directory ""-->
<svg xmlns="http://www.w3.org/2000/svg" width="30" height="210" viewBox="0 0 30 210">
    <svg width="30" height="30" viewBox="0 0 512 512" id="pause" y="0">
        <path d="M256 48C141.31 48 48 141.31 48 256s93.31 208 208 208s208-93.31 208-208S370.69 48 256 48zm-32 272a16 16 0 0 1-32 0V192a16 16 0 0 1 32 0zm96 0a16 16 0 0 1-32 0V192a16 16 0 0 1 32 0z" fill="#ffffff"/>
    </svg>
    <svg width="30" height="30" viewBox="0 0 512 512"
         id="play-skip-back" y="30">
        <path d="M112 64a16 16 0 0116 16v136.43L360.77 77.11a35.13 35.13 0 0135.77-.44c12 6.8 19.46 20 19.46 34.33v290c0 14.37-7.46 27.53-19.46 34.33a35.14 35.14 0 01-35.77-.45L128 295.57V432a16 16 0 01-32 0V80a16 16 0 0116-16z"
              fill="#ffffff"/>
    </svg>
    <svg width="30" height="30" viewBox="0 0 512 512" id="play-skip-forward" y="60">
        <path d="M400 64a16 16 0 00-16 16v136.43L151.23 77.11a35.13 35.13 0 00-35.77-.44C103.46 83.47 96 96.63 96 111v290c0 14.37 7.46 27.53 19.46 34.33a35.14 35.14 0 0035.77-.45L384 295.57V432a16 16 0 0032 0V80a16 16 0 00-16-16z"
              fill="#fff"/>
    </svg>
    <svg width="30" height="30" viewBox="0 0 512 512" id="play" y="90">
        <path d="M256 48C141.31 48 48 141.31 48 256s93.31 208 208 208s208-93.31 208-208S370.69 48 256 48zm-56 296V168l144 88z" fill="#ffffff"/>
    </svg>
    <svg width="30" height="30" viewBox="0 0 24 24" id="volume-high" y="120">
        <path d="M14 3.23v2.06c2.89.86 5 3.54 5 6.71s-2.11 5.84-5 6.7v2.07c4-.91 7-4.49 7-8.77 0-4.28-3-7.86-7-8.77M16.5 12c0-1.77-1-3.29-2.5-4.03V16c1.5-.71 2.5-2.24 2.5-4M3 9v6h4l5 5V4L7 9H3z"
              fill="#fff"/>
    </svg>
    <svg width="30" height="30" viewBox="0 0 24 24" id="volume-medium" y="150">
        <path d="M5 9v6h4l5 5V4L9 9m9.5 3c0-1.77-1-3.29-2.5-4.03V16c1.5-.71 2.5-2.24 2.5-4z" fill="#fff"/>
    </svg>
    <svg width="30" height="30" viewBox="0 0 24 24" id="volume-mute" y="180">
        <path d="M3 9h4l5-5v16l-5-5H3V9m13.59 3L14 9.41 15.41 8 18 10.59 20.59 8 22 9.41 19.41 12 22 14.59 20.59 16 18 13.41 15.41 16 14 14.59 16.59 12z"
              fill="#fff"/>
    </svg>
</svg>
